# Max2Obj Version 4.0 Mar 10th, 2001
#
# object Plane01 to come ...
#
v  -19.907928 0.000000 21.946497
v  20.092072 0.000000 21.946497
v  -19.907928 0.000000 -18.053503
v  20.092072 0.000000 -18.053503
# 4 vertices

vt  -1.500000 -1.499999 0.500000
vt  2.500000 -1.500000 0.500000
vt  -1.499999 2.500000 0.500000
vt  2.500000 2.500000 0.500000
vt  -1.500000 -1.499999 0.500000
vt  2.500000 2.500000 0.500000
# 6 texture vertices

vn  0.000000 1.000000 -0.000000
vn  0.000000 1.000000 -0.000000
vn  0.000000 1.000000 -0.000000
vn  0.000000 1.000000 -0.000000
# 4 vertex normals

g Plane01
s 1
f 3/3/3 1/5/1 4/6/4
f 2/2/2 4/4/4 1/1/1
# 2 faces

g
# object Plane02 to come ...
#
v  -20.000000 -0.002579 -17.507057
v  20.000000 -0.002579 -17.507057
v  -20.000000 15.997421 -17.507057
v  20.000000 15.997421 -17.507057
v  -19.420835 -0.002579 21.708420
v  -19.420837 -0.002579 -18.291580
v  -19.420834 15.997421 21.708420
v  -19.420835 15.997421 -18.291580
v  19.665834 -0.002579 -18.291580
v  19.665838 -0.002579 21.708420
v  19.665834 15.997421 -18.291580
v  19.665838 15.997421 21.708420
v  20.000000 -0.002579 21.472263
v  -20.000000 -0.002579 21.472271
v  20.000000 15.997421 21.472263
v  -20.000000 15.997421 21.472271
v  -20.000000 7.957989 -17.507057
v  20.000000 7.957989 -17.507057
v  -20.000000 13.480488 -17.507057
v  20.000000 13.480488 -17.507057
v  -6.560635 7.957989 -17.507057
v  -6.560635 13.480488 -17.507057
v  9.163436 7.957989 -17.507057
v  9.163436 13.480488 -17.507057
# 24 vertices

vt  -1.722222 0.023896 2.504964
vt  2.722223 0.023896 2.504963
vt  -1.722222 1.801674 2.504964
vt  2.722223 1.801674 2.504963
vt  -1.852312 0.023896 -1.657871
vt  2.592133 0.023896 -1.657870
vt  -1.852312 1.801674 -1.657871
vt  2.592133 1.801674 -1.657870
vt  -1.592132 0.023896 2.685093
vt  2.852313 0.023896 2.685093
vt  -1.592132 1.801674 2.685093
vt  2.852313 1.801674 2.685093
vt  -1.722222 0.023896 -1.826073
vt  2.722223 0.023896 -1.826073
vt  -1.722222 1.801674 -1.826073
vt  2.722223 1.801674 -1.826073
vt  -1.722222 0.908404 2.504964
vt  2.722223 0.908404 2.504963
vt  -1.722222 1.522015 2.504964
vt  2.722223 1.522015 2.504963
vt  -0.228959 0.908404 2.504964
vt  -0.228959 1.522015 2.504964
vt  1.518160 0.908404 2.504963
vt  1.518160 1.522015 2.504963
# 24 texture vertices

vn  0.000000 -0.000000 1.000000
vn  0.000000 -0.000000 1.000000
vn  0.000000 -0.000000 1.000000
vn  -0.000000 -0.000000 1.000000
vn  1.000000 -0.000000 -0.000000
vn  1.000000 -0.000000 -0.000000
vn  1.000000 -0.000000 -0.000000
vn  1.000000 -0.000000 -0.000000
vn  -1.000000 -0.000000 0.000000
vn  -1.000000 0.000000 0.000000
vn  -1.000000 -0.000000 0.000000
vn  -1.000000 -0.000000 0.000000
vn  -0.000000 0.000000 -1.000000
vn  -0.000000 0.000000 -1.000000
vn  -0.000000 0.000000 -1.000000
vn  -0.000000 0.000000 -1.000000
vn  -0.000000 -0.000000 1.000000
vn  0.000000 -0.000000 1.000000
vn  -0.000000 -0.000000 1.000000
vn  0.000000 -0.000000 1.000000
vn  0.000000 -0.000000 1.000000
vn  -0.000000 -0.000000 1.000000
vn  0.000000 -0.000000 1.000000
vn  0.000000 -0.000000 1.000000
# 24 vertex normals

g Plane02
s 1
f 28/30/28 24/26/24 8/10/8
f 26/28/26 28/30/28 8/10/8
f 23/25/23 26/28/26 8/10/8
f 7/9/7 23/25/23 8/10/8
f 9/11/9 10/12/10 12/14/12
f 12/14/12 11/13/11 9/11/9
f 13/15/13 14/16/14 16/18/16
f 16/18/16 15/17/15 13/15/13
f 17/19/17 18/20/18 20/22/20
f 20/22/20 19/21/19 17/19/17
f 5/7/5 6/8/6 22/24/22
f 5/7/5 22/24/22 27/29/27
f 5/7/5 27/29/27 25/27/25
f 21/23/21 5/7/5 25/27/25
f 21/23/21 25/27/25 26/28/26
f 26/28/26 23/25/23 21/23/21
f 22/24/22 24/26/24 28/30/28
f 28/30/28 27/29/27 22/24/22
# 18 faces

g
# object Plane03 to come ...
#
v  20.092072 15.937133 21.946497
v  -19.907928 15.937139 21.946497
v  20.092072 15.937133 -18.053503
v  -19.907928 15.937139 -18.053503
# 4 vertices

vt  -1.500000 -1.499999 0.500000
vt  2.500000 -1.500000 0.500000
vt  -1.499999 2.500000 0.500000
vt  2.500000 2.500000 0.500000
vt  -1.500000 -1.499999 0.500000
vt  2.500000 2.500000 0.500000
# 6 texture vertices

vn  -0.000000 -1.000000 -0.000000
vn  -0.000000 -1.000000 -0.000000
vn  -0.000000 -1.000000 -0.000000
vn  -0.000000 -1.000000 -0.000000
# 4 vertex normals

g Plane03
s 1
f 31/33/31 29/35/29 32/36/32
f 30/32/30 32/34/32 29/31/29
# 2 faces

g
# object Plane07 to come ...
#
v  2.128530 15.506963 -3.237886
v  -2.082474 15.506964 -3.237886
v  2.128530 16.507092 -3.237885
v  -2.082474 16.507092 -3.237885
v  2.128530 15.506963 3.200213
v  -2.082474 15.506964 3.200213
v  2.128530 15.506963 -3.237887
v  -2.082474 15.506964 -3.237887
v  -2.082475 16.507092 3.200213
v  -2.082474 16.507092 -3.237886
v  -2.082474 15.506964 3.200213
v  -2.082474 15.506964 -3.237887
v  2.128529 15.506963 3.200213
v  2.128529 15.506963 -3.237887
v  2.128529 16.507090 3.200213
v  2.128529 16.507092 -3.237886
v  2.128530 16.507090 3.200213
v  -2.082475 16.507092 3.200213
v  2.128530 15.506963 3.200213
v  -2.082474 15.506964 3.200213
# 20 vertices

vt  0.000500 0.999501 0.000500
vt  0.999501 0.999500 0.000500
vt  0.000500 0.000500 0.000511
vt  0.999500 0.000500 0.000511
vt  0.000500 0.999501 0.000500
vt  0.999501 0.999500 0.000500
vt  0.000500 0.000500 0.000511
vt  0.999500 0.000500 0.000511
vt  0.000500 0.000500 0.999501
vt  0.999500 0.000500 0.999501
vt  0.000500 0.999501 0.999501
vt  0.999501 0.999500 0.999501
vt  0.000500 0.999501 0.000500
vt  0.999501 0.999500 0.000500
vt  0.000500 0.000500 0.000511
vt  0.999500 0.000500 0.000511
vt  0.000500 0.000500 0.999501
vt  0.999500 0.000500 0.999501
vt  0.000500 0.999501 0.999501
vt  0.999501 0.999500 0.999501
# 20 texture vertices

vn  -0.000000 0.000002 -1.609525
vn  0.000000 0.000002 -1.609525
vn  -0.000000 0.000002 -1.609525
vn  -0.000000 0.000002 -1.609525
vn  -0.000000 -1.609525 -0.000000
vn  -0.000000 -1.609525 -0.000000
vn  -0.000000 -1.609525 -0.000000
vn  -0.000000 -1.609525 -0.000000
vn  -1.609525 -0.000000 -0.000000
vn  -1.609525 0.000000 -0.000000
vn  -1.609525 -0.000001 -0.000000
vn  -1.609525 -0.000000 -0.000000
vn  1.609525 0.000001 0.000000
vn  1.609525 0.000001 0.000000
vn  1.609525 0.000001 0.000000
vn  1.609525 0.000001 0.000000
vn  0.000000 -0.000000 1.609525
vn  0.000000 -0.000001 1.609525
vn  -0.000000 -0.000000 1.609525
vn  0.000000 -0.000000 1.609525
# 20 vertex normals

g Plane07
s 1
f 33/37/33 34/38/34 36/40/36
f 36/40/36 35/39/35 33/37/33
f 37/41/37 38/42/38 40/44/40
f 40/44/40 39/43/39 37/41/37
f 41/45/41 42/46/42 44/48/44
f 44/48/44 43/47/43 41/45/41
f 45/49/45 46/50/46 48/52/48
f 48/52/48 47/51/47 45/49/45
f 49/53/49 50/54/50 52/56/52
f 52/56/52 51/55/51 49/53/49
# 10 faces

g
