# Max2Obj Version 4.0 Mar 10th, 2001
#
# object Plane01 to come ...
#
v  -19.907928 0.000000 21.946497
v  20.092072 0.000000 21.946497
v  -19.907928 0.000000 -18.053503
v  20.092072 0.000000 -18.053503
# 4 vertices

vt  -1.500000 -1.499999 0.500000
vt  2.500000 -1.500000 0.500000
vt  -1.499999 2.500000 0.500000
vt  2.500000 2.500000 0.500000
vt  -1.500000 -1.499999 0.500000
vt  2.500000 2.500000 0.500000
# 6 texture vertices

vn  0.000000 1.000000 -0.000000
vn  0.000000 1.000000 -0.000000
vn  0.000000 1.000000 -0.000000
vn  0.000000 1.000000 -0.000000
# 4 vertex normals

g Plane01
s 1
f 3/3/3 1/5/1 4/6/4
f 2/2/2 4/4/4 1/1/1
# 2 faces

g
# object Plane02 to come ...
#
v  -20.000000 -0.002579 -17.507057
v  20.000000 -0.002579 -17.507057
v  -20.000000 15.997421 -17.507057
v  20.000000 15.997421 -17.507057
v  -19.420835 -0.002579 21.708420
v  -19.420837 -0.002579 -18.291580
v  -19.420834 15.997421 21.708420
v  -19.420835 15.997421 -18.291580
v  19.665834 -0.002579 -18.291580
v  19.665838 -0.002579 21.708420
v  19.665834 15.997421 -18.291580
v  19.665838 15.997421 21.708420
v  20.000000 -0.002579 21.472263
v  -20.000000 -0.002579 21.472271
v  20.000000 15.997421 21.472263
v  -20.000000 15.997421 21.472271
# 16 vertices

vt  -1.500000 -0.300000 -1.421548
vt  2.500000 -0.300001 -1.421548
vt  -1.500000 1.300000 -1.421548
vt  2.500000 1.299999 -1.421548
vt  -0.299999 2.500000 -1.442084
vt  -0.300000 -1.500000 -1.442084
vt  1.300001 2.500000 -1.442083
vt  1.300000 -1.500000 -1.442083
vt  1.300001 -1.500000 2.466583
vt  1.300000 2.500000 2.466584
vt  -0.299999 -1.500000 2.466584
vt  -0.300000 2.500000 2.466584
vt  -1.500000 -0.300000 2.476384
vt  2.500000 -0.299999 2.476385
vt  -1.500000 1.300000 2.476384
vt  2.500000 1.300001 2.476385
# 16 texture vertices

vn  0.000000 -0.000000 1.000000
vn  0.000000 -0.000000 1.000000
vn  0.000000 -0.000000 1.000000
vn  0.000000 -0.000000 1.000000
vn  1.000000 -0.000000 -0.000000
vn  1.000000 -0.000000 -0.000000
vn  1.000000 -0.000000 -0.000000
vn  1.000000 -0.000000 -0.000000
vn  -1.000000 -0.000000 0.000000
vn  -1.000000 -0.000000 0.000000
vn  -1.000000 -0.000000 0.000000
vn  -1.000000 -0.000000 0.000000
vn  -0.000000 0.000000 -1.000000
vn  -0.000000 0.000000 -1.000000
vn  -0.000000 0.000000 -1.000000
vn  -0.000000 0.000000 -1.000000
# 16 vertex normals

g Plane02
s 1
f 5/7/5 6/8/6 8/10/8
f 8/10/8 7/9/7 5/7/5
f 9/11/9 10/12/10 12/14/12
f 12/14/12 11/13/11 9/11/9
f 13/15/13 14/16/14 16/18/16
f 16/18/16 15/17/15 13/15/13
f 17/19/17 18/20/18 20/22/20
f 20/22/20 19/21/19 17/19/17
# 8 faces

g
# object Plane03 to come ...
#
v  -4.907929 2.563519 6.946497
v  5.092071 2.563519 6.946497
v  -4.907929 2.563519 -3.053503
v  5.092071 2.563519 -3.053503
# 4 vertices

vt  0.000499 0.000500 0.500000
vt  0.999500 0.000499 0.500000
vt  0.000500 0.999501 0.500000
vt  0.999501 0.999500 0.500000
vt  0.000499 0.000500 0.500000
vt  0.999501 0.999500 0.500000
# 6 texture vertices

vn  0.000000 1.000000 -0.000000
vn  0.000000 1.000000 -0.000000
vn  0.000000 1.000000 -0.000000
vn  0.000000 1.000000 -0.000000
# 4 vertex normals

g Plane03
s 1
f 23/25/23 21/27/21 24/28/24
f 22/24/22 24/26/24 21/23/21
# 2 faces

g
