# Exported from Wings 3D 0.98.33
mtllib takeout.mtl
o cube1
#20 vertices, 19 faces
v -0.14436000 -0.18000000 0.14436000
v -0.18000000 0.18000000 0.18000000
v 0.18000000 0.18000000 0.18000000
v 0.14436000 -0.18000000 0.14436000
v -0.14436000 -0.18000000 -0.14436000
v -0.18000000 0.18000000 -0.18000000
v 0.18000000 0.18000000 -0.18000000
v 0.14436000 -0.18000000 -0.14436000
v -0.18000000 0.18000000 0.0000000e+0
v 0.18000000 0.18000000 0.0000000e+0
v -6.0000000e-2 0.18000000 0.0000000e+0
v 6.0000000e-2 0.18000000 0.0000000e+0
v 0.18000000 0.19025479 0.18000000
v 6.0000000e-2 0.19025479 0.0000000e+0
v -6.0000000e-2 0.19025479 0.0000000e+0
v -0.18000000 0.19025479 0.18000000
v 6.0000000e-2 0.19025479 0.0000000e+0
v 0.18000000 0.19025479 -0.18000000
v -0.18000000 0.19025479 -0.18000000
v -6.0000000e-2 0.19025479 0.0000000e+0
vt 2.4323847e-3 1.00000000
vt 2.5372357e-3 1.00000000
vt 2.5372357e-3 1.00000000
vt 3.2604993e-3 1.00000000
vt 9.9758692e-2 1.4814531e-3
vt 0.10079984 1.8757285e-4
vt 0.10079984 1.8757285e-4
vt 0.10095077 0.0000000e+0
vt 0.44704074 0.89249655
vt 0.44704074 0.94624828
vt 0.44704074 1.00000000
vt 0.45413947 0.91378223
vt 0.45413947 1.00000000
vt 0.48287522 0.94624828
vt 0.50000000 0.99907640
vt 0.50000000 0.99988306
vt 0.51870970 0.94624828
vt 0.54035724 0.91378223
vt 0.54035724 1.00000000
vt 0.55454418 0.89249655
vt 0.55454418 0.94624828
vt 0.55454418 1.00000000
vt 0.89652885 0.0000000e+0
vt 0.89873011 -1.1102230e-16
vt 0.89873011 0.0000000e+0
vt 0.89904923 0.0000000e+0
vt 0.99673950 0.99815280
vt 0.99746276 0.99976612
vt 0.99746276 0.99976612
vt 0.99756762 1.00000000
vn 0.0000000e+0 -9.8518388e-2 0.99513523
vn 0.0000000e+0 -1.00000000 0.0000000e+0
vn -0.99513523 -9.8518388e-2 0.0000000e+0
vn 0.0000000e+0 -4.9319212e-2 0.99878307
vn -0.99513523 -9.8518388e-2 0.0000000e+0
vn 0.0000000e+0 1.00000000 0.0000000e+0
vn -0.83205029 0.0000000e+0 -0.55470020
vn 0.0000000e+0 -4.9319212e-2 0.99878307
vn 0.0000000e+0 -4.9319212e-2 0.99878307
vn 0.99513523 -9.8518388e-2 0.0000000e+0
vn 0.0000000e+0 1.00000000 0.0000000e+0
vn 0.83205029 0.0000000e+0 -0.55470020
vn 0.0000000e+0 -4.9319212e-2 0.99878307
vn 0.0000000e+0 -9.8518388e-2 0.99513523
vn 0.99513523 -9.8518388e-2 0.0000000e+0
vn 0.0000000e+0 -1.00000000 0.0000000e+0
vn 0.0000000e+0 -1.00000000 0.0000000e+0
vn 0.0000000e+0 -9.8518388e-2 -0.99513523
vn -0.99513523 -9.8518388e-2 0.0000000e+0
vn 0.0000000e+0 -4.9319212e-2 -0.99878307
vn -0.99513523 -9.8518388e-2 0.0000000e+0
vn 0.0000000e+0 1.00000000 0.0000000e+0
vn 0.0000000e+0 -4.9319212e-2 -0.99878307
vn -0.83205029 0.0000000e+0 0.55470020
vn 0.99513523 -9.8518388e-2 0.0000000e+0
vn 0.0000000e+0 -4.9319212e-2 -0.99878307
vn 0.0000000e+0 1.00000000 0.0000000e+0
vn 0.83205029 0.0000000e+0 0.55470020
vn 0.0000000e+0 -4.9319212e-2 -0.99878307
vn 0.99513523 -9.8518388e-2 0.0000000e+0
vn 0.0000000e+0 -1.00000000 0.0000000e+0
vn 0.0000000e+0 -9.8518388e-2 -0.99513523
vn -0.99513523 -9.8518388e-2 0.0000000e+0
vn 0.0000000e+0 1.00000000 0.0000000e+0
vn 0.0000000e+0 1.00000000 0.0000000e+0
vn 0.99513523 -9.8518388e-2 0.0000000e+0
vn 0.0000000e+0 1.00000000 0.0000000e+0
vn 0.0000000e+0 1.00000000 0.0000000e+0
vn 0.0000000e+0 1.00000000 0.0000000e+0
vn 0.0000000e+0 1.00000000 0.0000000e+0
vn -0.47185793 0.0000000e+0 -0.88167460
vn -0.47185793 0.0000000e+0 -0.88167460
vn -0.47185793 0.0000000e+0 0.88167460
vn -0.47185793 0.0000000e+0 0.88167460
vn 0.0000000e+0 1.00000000 0.0000000e+0
vn 0.0000000e+0 1.00000000 0.0000000e+0
vn 0.47185793 0.0000000e+0 -0.88167460
vn 0.47185793 0.0000000e+0 -0.88167460
vn 0.47185793 0.0000000e+0 0.88167460
vn 0.47185793 0.0000000e+0 0.88167460
vn 0.0000000e+0 1.00000000 0.0000000e+0
vn 0.83205029 0.0000000e+0 -0.55470020
vn 0.0000000e+0 0.0000000e+0 1.00000000
vn 0.0000000e+0 1.00000000 0.0000000e+0
vn 0.47185793 0.0000000e+0 -0.88167460
vn 0.47185793 0.0000000e+0 -0.88167460
vn 0.0000000e+0 1.00000000 0.0000000e+0
vn -0.47185793 0.0000000e+0 -0.88167460
vn -0.47185793 0.0000000e+0 -0.88167460
vn 0.0000000e+0 1.00000000 0.0000000e+0
vn -0.83205029 0.0000000e+0 -0.55470020
vn 0.0000000e+0 0.0000000e+0 1.00000000
vn 0.0000000e+0 1.00000000 0.0000000e+0
vn 0.47185793 0.0000000e+0 0.88167460
vn 0.47185793 0.0000000e+0 0.88167460
vn 0.0000000e+0 1.00000000 0.0000000e+0
vn 0.83205029 0.0000000e+0 0.55470020
vn 0.0000000e+0 0.0000000e+0 -1.00000000
vn 0.0000000e+0 1.00000000 0.0000000e+0
vn 0.0000000e+0 0.0000000e+0 -1.00000000
vn -0.83205029 0.0000000e+0 0.55470020
vn 0.0000000e+0 1.00000000 0.0000000e+0
vn -0.47185793 0.0000000e+0 0.88167460
vn -0.47185793 0.0000000e+0 0.88167460
g cube1_cube1_auv
usemtl cube1_auv
f 1/8/1 4/26/14 3/30/9 2/1/4
f 1/12/2 5/18/17 8/19/31 4/13/16
f 2/28/5 9/16/33 6/3/21 5/6/19 1/24/3
f 2/9/6 11/14/40 9/10/35
f 2/9/7 16/9/61 15/14/59 11/14/42
f 3/30/13 13/20/53 16/9/62 2/1/8
f 4/5/15 8/23/30 7/27/25 10/15/36 3/4/10
f 6/29/20 7/2/26 8/7/32 5/25/18
f 6/29/23 19/11/70 18/22/68 7/2/29
f 7/22/27 12/17/46 10/21/38
f 7/22/28 18/22/67 17/17/64 12/17/49
f 9/10/34 11/14/39 6/11/22
f 10/21/37 12/17/45 3/20/11
f 11/14/41 15/14/58 14/17/56 12/17/48
f 11/14/43 20/14/73 19/11/71 6/11/24
f 12/17/47 14/17/55 13/20/52 3/20/12
f 12/17/50 17/17/65 20/14/74 11/14/44
f 14/17/54 15/14/57 16/9/60 13/20/51
f 18/22/66 19/11/69 20/14/72 17/17/63
