# 
# Wavefront OBJ file
# Converted by the 3D Exploration 1.833
# XDimension Software, LLC
# http://www.xdsoft.com/explorer/
# 
# object Plane07
g Plane07
v -12.9737 10.1483 -7.23316
v 13.087 10.1483 -7.23316
v -12.9737 -0.000370505 -7.23316
v 13.087 -0.000369545 -7.23316
v 13.087 -0.000369737 7.4982
v 13.087 -0.000369545 -7.23316
v 13.087 10.1483 7.4982
v 13.087 10.1483 -7.23316
v -12.9737 10.1483 7.49821
v -12.9737 10.1483 -7.23316
v -12.9737 -0.000370505 7.4982
v -12.9737 -0.000370505 -7.23316
v -12.9737 -0.000370505 7.4982
v 13.087 -0.000369737 7.4982
v -12.9737 10.1483 7.49821
v 13.087 10.1483 7.4982
# 16 verticies
vt -0.84943 0.999947
vt 1.84943 0.999946
vt 1.84943 5.32866e-05
vt -0.84943 5.3823e-05
vt 1.26272 5.33462e-05
vt -0.262718 5.32866e-05
vt -0.262718 0.999946
vt 1.26272 0.999946
vt -0.262718 0.999947
vt 1.26272 0.999947
vt 1.26272 5.3823e-05
vt -0.262718 5.38826e-05
vt 1.84943 5.38826e-05
vt -0.84943 5.33462e-05
vt -0.84943 0.999946
vt 1.84943 0.999947
# 16 texture verticies
vn 4.5743e-08 -1.17463e-07 -1
vn 5.48915e-08 -9.39704e-08 -1
vn 3.65944e-08 -1.40956e-07 -1
vn 1 0 0
vn -1 -1.40956e-07 -3.23688e-08
vn -1 -1.87941e-07 -1.21668e-14
vn -1 -9.39703e-08 -6.47377e-08
vn 9.14859e-09 -1.17463e-07 1
vn 2.76736e-15 -9.39704e-08 1
vn 1.82972e-08 -1.40956e-07 1
# 10 normals
usemtl (null)
f 1/1/1 2/2/2 4/3/1
f 4/3/1 3/4/3 1/1/1
f 5/5/4 6/6/4 8/7/4
f 8/7/4 7/8/4 5/5/4
f 9/9/5 10/10/6 12/11/5
f 12/11/5 11/12/7 9/9/5
f 13/13/8 14/14/9 16/15/8
f 16/15/8 15/16/10 13/13/8
# object Object01
g Object01
v -12.9737 10.1483 7.49821
v 13.087 10.1483 7.4982
v -12.9737 10.1483 -7.23316
v 13.087 10.1483 -7.23316
v -12.9737 15.1799 0.132522
v 13.087 15.1799 0.132522
v -12.9737 10.1483 7.49821
v -12.9737 15.1799 0.132522
v -12.9737 10.1483 7.49821
v 13.087 10.1483 7.4982
v 13.087 15.1799 0.132522
v 13.087 10.1483 -7.23316
v -12.9737 10.1483 -7.23316
v -12.9737 15.1799 0.132522
v -12.9737 15.1799 0.132522
v 13.087 10.1483 -7.23316
# 16 verticies
vt 1.07204 0.695383
vt -0.0720387 0.695384
vt 0.5 0.304616
vt 1.51197 1.07204
vt -0.511971 1.07204
vt -0.511971 0.5
vt 1.51197 0.5
vt 1.07204 0.695384
vt -0.0720384 0.695384
vt 0.5 0.304616
vt -0.511971 -0.0720384
vt 1.51197 -0.0720387
# 12 texture verticies
vn -1 0 0
vn 1.03208e-08 0.825729 0.564067
vn 5.16042e-09 0.825729 0.564067
vn 0 0.825729 0.564067
vn 1 0 0
vn 4.12833e-08 0.825729 -0.564067
vn 0 0.825729 -0.564067
# 7 normals
f 19/17/11 17/18/11 21/19/11
f 23/20/12 18/21/12 22/22/13
f 22/22/13 24/23/14 25/20/14
f 26/24/15 20/25/15 27/26/15
f 28/27/16 29/28/16 30/23/16
f 31/23/17 22/22/17 32/27/17
# object Box01
g Box01
v 6.51772 11.5224 -1.85122
v 9.51772 11.5224 -1.85122
v 6.51772 11.5224 -4.85122
v 9.51772 11.5224 -4.85122
v 6.51772 15.5224 -1.85122
v 9.51772 15.5224 -1.85122
v 6.51772 15.5224 -4.85122
v 9.51772 15.5224 -4.85122
v 6.51772 11.5224 -1.85122
v 9.51772 11.5224 -1.85122
v 9.51772 15.5224 -1.85122
v 9.51772 15.5224 -1.85122
v 6.51772 15.5224 -1.85122
v 6.51772 11.5224 -1.85122
v 9.51772 11.5224 -4.85122
v 9.51772 15.5224 -1.85122
v 9.51772 11.5224 -4.85122
v 6.51772 11.5224 -4.85122
v 6.51772 15.5224 -4.85122
v 6.51772 15.5224 -4.85122
v 9.51772 15.5224 -4.85122
v 9.51772 11.5224 -4.85122
v 6.51772 11.5224 -4.85122
v 6.51772 15.5224 -1.85122
v 6.51772 15.5224 -1.85122
v 6.51772 11.5224 -4.85122
# 26 verticies
vt 1 0
vt 1 1
vt 0 1
vt 0 0
# 4 texture verticies
vn 0 -1 0
vn 0 1 0
vn 0 5.96046e-08 1
vn 1 0 0
vn 0 0 -1
vn -1 0 0
# 6 normals
f 33/29/18 35/30/18 36/31/18
f 36/31/18 34/32/18 33/29/18
f 37/32/19 38/29/19 40/30/19
f 40/30/19 39/31/19 37/32/19
f 41/32/20 42/29/20 43/30/20
f 44/30/20 45/31/20 46/32/20
f 34/32/21 47/29/21 40/30/21
f 40/30/21 48/31/21 34/32/21
f 49/32/22 50/29/22 51/30/22
f 52/30/22 53/31/22 54/32/22
f 55/32/23 33/29/23 56/30/23
f 57/30/23 39/31/23 58/32/23
