# Max2Obj Version 4.0 Mar 10th, 2001
#
# object Plane01 to come ...
#
v  -7.907929 0.000000 9.946497
v  8.092072 0.000000 9.946497
v  -7.907929 0.000000 -6.053504
v  8.092072 0.000000 -6.053504
# 4 vertices

vt  0.000000 0.000000 0.000000
vt  1.000000 0.000000 0.000000
vt  0.000000 0.000000 0.000000
vt  1.000000 0.000000 0.000000
vt  0.000000 0.000000 0.000000
vt  1.000000 0.000000 0.000000
vt  0.000000 1.000000 0.000000
vt  1.000000 1.000000 0.000000
# 8 texture vertices

vn  0.000000 1.000000 -0.000000
vn  0.000000 1.000000 -0.000000
vn  0.000000 1.000000 -0.000000
vn  0.000000 1.000000 -0.000000
# 4 vertex normals

g Plane01
s 1
f 3/7/3 1/5/1 4/8/4
f 2/6/2 4/8/4 1/5/1
# 2 faces

g
# object Plane02 to come ...
#
v  -8.000000 -0.002579 -5.921737
v  8.000000 -0.002579 -5.921737
v  -8.000000 15.997421 -5.921736
v  8.000000 15.997421 -5.921736
# 4 vertices

vt  0.000000 0.000000 0.000000
vt  1.000000 0.000000 0.000000
vt  0.000000 0.000000 0.000000
vt  1.000000 0.000000 0.000000
vt  0.000000 0.000000 0.000000
vt  1.000000 0.000000 0.000000
vt  0.000000 1.000000 0.000000
vt  1.000000 1.000000 0.000000
# 8 texture vertices

vn  0.000000 -0.000000 1.000000
vn  0.000000 -0.000000 1.000000
vn  0.000000 -0.000000 1.000000
vn  0.000000 -0.000000 1.000000
# 4 vertex normals

g Plane02
s 1
f 7/15/7 5/13/5 8/16/8
f 6/14/6 8/16/8 5/13/5
# 2 faces

g
# object Plane03 to come ...
#
v  -7.727868 -0.002579 9.708420
v  -7.727869 -0.002579 -6.291580
v  -7.727868 15.997421 9.708420
v  -7.727868 15.997421 -6.291580
# 4 vertices

vt  0.000000 0.000000 0.000000
vt  1.000000 0.000000 0.000000
vt  0.000000 0.000000 0.000000
vt  1.000000 0.000000 0.000000
vt  0.000000 0.000000 0.000000
vt  1.000000 0.000000 0.000000
vt  0.000000 1.000000 0.000000
vt  1.000000 1.000000 0.000000
# 8 texture vertices

vn  1.000000 -0.000000 -0.000000
vn  1.000000 -0.000000 -0.000000
vn  1.000000 -0.000000 -0.000000
vn  1.000000 -0.000000 -0.000000
# 4 vertex normals

g Plane03
s 1
f 11/23/11 9/21/9 12/24/12
f 10/22/10 12/24/12 9/21/9
# 2 faces

g
